<svg
    xmlns="http://www.w3.org/2000/svg"
    viewBox="0 0 16 16"
    fill="none">
    <g clip-path="url(#a)">
        <path fill="url(#b)"
              d="M5.535 0h9.215C15.44 0 16 .56 16 1.25v9.215a2.5 2.5 0 0 1-.732 1.768l-3.036 3.034a2.5 2.5 0 0 1-1.767.733H1.25C.56 16 0 15.44 0 14.75V5.535a2.5 2.5 0 0 1 .733-1.768L3.768.734A2.5 2.5 0 0 1 5.534 0Z" />
        <path fill="#000" d="M13 3H1.5v11.5H13V3Z" style="fill:#000;fill-opacity:1" />
        <path fill="#fff"
              d="M2.98 5.372a.218.218 0 0 0 .025-.104V4h.409v1.298a.577.577 0 0 1-.069.286.493.493 0 0 1-.196.192.595.595 0 0 1-.29.069H2.5v-.376h.305c.04 0 .075-.009.105-.025a.167.167 0 0 0 .07-.072ZM2.5 12.75h4v.75h-4v-.75Zm1.649-7.657h.869v-.346h-.87v-.39h.96V4H3.75v1.845h1.383V5.49h-.985v-.397Zm1.681-.727h-.548V4h1.5v.366h-.545v1.479H5.83V4.366Z"
              style="fill:#fff;fill-opacity:1" />
        <path fill="#fff" fill-rule="evenodd"
              d="M3.734 7.324a.539.539 0 0 0-.1-.04.403.403 0 0 0 .292-.395.43.43 0 0 0-.076-.252.504.504 0 0 0-.215-.172.766.766 0 0 0-.315-.063H2.5v1.845h.836a.795.795 0 0 0 .332-.065.531.531 0 0 0 .226-.18.451.451 0 0 0 .08-.266.474.474 0 0 0-.064-.245.438.438 0 0 0-.176-.167Zm-.838-.612h.363c.05 0 .095.01.132.028a.203.203 0 0 1 .09.077.236.236 0 0 1 0 .24.208.208 0 0 1-.09.08.3.3 0 0 1-.132.03h-.363v-.455Zm.625 1.118a.227.227 0 0 1-.099.081.361.361 0 0 1-.147.029h-.379v-.474h.379c.055 0 .103.01.146.03a.226.226 0 0 1 .135.211.21.21 0 0 1-.035.123Zm2.094-.535a.559.559 0 0 1-.237.207h-.002a.895.895 0 0 1-.061.024l.421.721H5.27l-.374-.672H4.63v.672h-.409V6.402h.808c.133 0 .251.024.352.073.101.049.18.116.235.205a.56.56 0 0 1 .083.305.567.567 0 0 1-.084.31Zm-.616-.56H4.63v.511H5c.057 0 .106-.01.149-.031a.217.217 0 0 0 .097-.089.269.269 0 0 0 .034-.136.264.264 0 0 0-.034-.135.224.224 0 0 0-.098-.089A.326.326 0 0 0 5 6.735Zm1.436-.331-.659 1.845h.415l.13-.408h.684l.14.408h.408l-.675-1.845h-.443Zm-.021 1.128.212-.65.025-.12.025.12.226.65h-.488Z"
              clip-rule="evenodd" style="fill:#fff;fill-opacity:1" />
        <path fill="#fff"
              d="M7.737 6.404h.422v1.845h-.422V6.404ZM9.696 7.65l-.794-1.247h-.397v1.845h.372v-1.25l.79 1.25h.403V6.404h-.374V7.65Zm1.82-.399a.54.54 0 0 1 .168.193h-.002c.04.077.06.161.06.252 0 .112-.03.212-.088.3a.589.589 0 0 1-.248.208.85.85 0 0 1-.365.075.853.853 0 0 1-.362-.074.594.594 0 0 1-.25-.205.542.542 0 0 1-.092-.305h.41c0 .048.013.09.038.126a.24.24 0 0 0 .106.084c.045.02.099.03.155.03a.38.38 0 0 0 .148-.026.228.228 0 0 0 .097-.075.184.184 0 0 0 .035-.111.183.183 0 0 0-.047-.128.254.254 0 0 0-.13-.071l-.332-.069a.609.609 0 0 1-.228-.099.5.5 0 0 1-.207-.418c0-.11.028-.208.084-.294a.56.56 0 0 1 .234-.201.767.767 0 0 1 .342-.073c.13 0 .245.024.345.07a.56.56 0 0 1 .237.194.517.517 0 0 1 .088.285h-.408a.184.184 0 0 0-.033-.106.21.21 0 0 0-.09-.073.33.33 0 0 0-.135-.026.338.338 0 0 0-.132.025.205.205 0 0 0-.09.069.172.172 0 0 0-.03.103c0 .044.015.08.043.11a.23.23 0 0 0 .118.062l.314.065a.625.625 0 0 1 .247.103Z"
              style="fill:#fff;fill-opacity:1" />
    </g>
    <defs>
        <linearGradient id="b" x1=".25" x2="15.688" y1="15.75" y2=".313" gradientUnits="userSpaceOnUse">
            <stop stop-color="#FF9419"
                  style="stop-color:#ff9419;stop-color:color(display-p3 1 .5804 .098);stop-opacity:1" />
            <stop offset=".43" stop-color="#FF021D"
                  style="stop-color:#ff021d;stop-color:color(display-p3 1 .0078 .1137);stop-opacity:1" />
            <stop offset=".99" stop-color="#E600FF"
                  style="stop-color:#e600ff;stop-color:color(display-p3 .902 0 1);stop-opacity:1" />
        </linearGradient>
        <clipPath id="a">
            <path fill="#fff" d="M0 0h16v16H0z" style="fill:#fff;fill-opacity:1" />
        </clipPath>
    </defs>
</svg>
